<svg xmlns="http://www.w3.org/2000/svg" xmlns:xlink="http://www.w3.org/1999/xlink" width="2000" zoomAndPan="magnify" viewBox="0 0 1500 1499.999933" height="2000" preserveAspectRatio="xMidYMid meet" version="1.0"><defs><clipPath id="6163cf3653"><path d="M 202 825 L 1298 825 L 1298 1341.8125 L 202 1341.8125 Z M 202 825 " clip-rule="nonzero"/></clipPath><clipPath id="841db9cc8d"><path d="M 167.1875 509 L 469 509 L 469 761 L 167.1875 761 Z M 167.1875 509 " clip-rule="nonzero"/></clipPath><clipPath id="6a49272726"><path d="M 1031 509 L 1332.6875 509 L 1332.6875 761 L 1031 761 Z M 1031 509 " clip-rule="nonzero"/></clipPath><clipPath id="03df294725"><path d="M 170 158.3125 L 628 158.3125 L 628 558 L 170 558 Z M 170 158.3125 " clip-rule="nonzero"/></clipPath><clipPath id="462a7b8aca"><path d="M 872 158.3125 L 1330 158.3125 L 1330 558 L 872 558 Z M 872 158.3125 " clip-rule="nonzero"/></clipPath><clipPath id="79d3b050ec"><path d="M 202 825 L 1298 825 L 1298 1341.8125 L 202 1341.8125 Z M 202 825 " clip-rule="nonzero"/></clipPath><clipPath id="cf02358ca0"><path d="M 167.1875 509 L 469 509 L 469 761 L 167.1875 761 Z M 167.1875 509 " clip-rule="nonzero"/></clipPath><clipPath id="4093d4638d"><path d="M 1031 509 L 1332.6875 509 L 1332.6875 761 L 1031 761 Z M 1031 509 " clip-rule="nonzero"/></clipPath><clipPath id="54f4508999"><path d="M 170 158.3125 L 628 158.3125 L 628 558 L 170 558 Z M 170 158.3125 " clip-rule="nonzero"/></clipPath><clipPath id="5b73531dd2"><path d="M 872 158.3125 L 1330 158.3125 L 1330 558 L 872 558 Z M 872 158.3125 " clip-rule="nonzero"/></clipPath></defs><g clip-path="url(#6163cf3653)"><path fill="#ffffff" d="M 264.699219 1219.65625 C 258.296875 1219.65625 252.234375 1216.3125 248.851562 1210.683594 L 204.855469 1137.425781 C 203.019531 1134.359375 202.101562 1130.832031 202.226562 1127.253906 L 211.328125 867.351562 C 211.648438 858.425781 218.289062 851.007812 227.121094 849.710938 L 393.742188 825.25 C 403.808594 823.773438 413.246094 830.75 414.730469 840.847656 C 415.828125 848.347656 412.261719 855.457031 406.226562 859.226562 C 422.824219 876.007812 443.644531 903.457031 444.964844 910.179688 C 446.941406 920.191406 440.414062 929.917969 430.386719 931.886719 L 322.957031 953 L 282.960938 1204.078125 C 281.738281 1211.757812 275.851562 1217.851562 268.214844 1219.324219 C 267.042969 1219.546875 265.855469 1219.65625 264.699219 1219.65625 Z M 510.449219 1341.695312 C 509.023438 1341.695312 507.585938 1341.53125 506.15625 1341.191406 L 422.894531 1321.3125 C 417.199219 1319.953125 412.484375 1315.980469 410.195312 1310.605469 L 361.402344 1196.511719 C 359.21875 1191.429688 359.441406 1185.621094 362 1180.710938 L 474.730469 963.984375 C 479.449219 954.921875 490.601562 951.382812 499.671875 956.113281 C 507.640625 960.261719 511.332031 969.402344 508.882812 977.71875 C 531.707031 979.425781 569.488281 988.664062 575.828125 992.332031 C 584.65625 997.457031 587.667969 1008.769531 582.546875 1017.605469 C 558.632812 1058.851562 499.457031 1162.894531 483.199219 1191.484375 L 527.886719 1317.019531 C 530.15625 1323.402344 528.753906 1330.515625 524.226562 1335.578125 C 520.660156 1339.511719 515.632812 1341.695312 510.449219 1341.695312 Z M 1235.335938 1219.65625 C 1234.171875 1219.65625 1233 1219.539062 1231.820312 1219.316406 C 1224.191406 1217.839844 1218.296875 1211.742188 1217.074219 1204.070312 L 1177.089844 953 L 1069.675781 931.886719 C 1059.65625 929.925781 1053.121094 920.195312 1055.097656 910.179688 C 1056.5 903.019531 1075.605469 872.351562 1090.0625 856.105469 C 1086.386719 852.140625 1084.476562 846.613281 1085.324219 840.84375 C 1086.800781 830.75 1096.207031 823.800781 1106.3125 825.242188 L 1272.941406 849.699219 C 1281.769531 850.996094 1288.414062 858.410156 1288.734375 867.34375 L 1297.828125 1127.246094 C 1297.953125 1130.816406 1297.035156 1134.339844 1295.207031 1137.414062 L 1251.226562 1210.675781 C 1247.820312 1216.320312 1241.765625 1219.664062 1235.351562 1219.664062 Z M 989.578125 1341.695312 C 984.394531 1341.695312 979.367188 1339.511719 975.816406 1335.566406 C 971.28125 1330.523438 969.886719 1323.394531 972.160156 1317.007812 L 1016.847656 1191.46875 C 1000.589844 1162.878906 941.414062 1058.84375 917.507812 1017.585938 C 912.382812 1008.753906 915.386719 997.4375 924.226562 992.316406 C 930.351562 988.753906 967.023438 977.699219 990.511719 974.269531 C 989.820312 967.003906 993.503906 959.691406 1000.390625 956.121094 C 1009.453125 951.382812 1020.613281 954.925781 1025.316406 963.992188 L 1138.050781 1180.71875 C 1140.609375 1185.628906 1140.824219 1191.429688 1138.652344 1196.519531 L 1089.859375 1310.609375 C 1087.558594 1315.992188 1082.835938 1319.972656 1077.160156 1321.320312 L 993.898438 1341.199219 C 992.449219 1341.542969 991.011719 1341.703125 989.582031 1341.703125 Z M 989.578125 1341.695312 " fill-opacity="1" fill-rule="evenodd"/></g><g clip-path="url(#841db9cc8d)"><path fill="#ffffff" d="M 405.328125 760.597656 C 404.035156 760.597656 402.726562 760.457031 401.414062 760.179688 C 339.117188 746.773438 138.371094 690.121094 170.878906 524.089844 C 172.839844 514.074219 182.503906 507.519531 192.574219 509.496094 C 200.972656 511.140625 288.167969 515.222656 315.058594 522.402344 C 318.753906 516 326.128906 512.179688 333.839844 513.34375 C 343.929688 514.871094 350.882812 524.289062 349.363281 534.386719 C 342.320312 581.03125 360.320312 589.421875 399.757812 607.816406 C 405.527344 610.5 411.484375 613.289062 417.589844 616.320312 L 457.824219 636.28125 C 466.972656 640.828125 470.703125 651.921875 466.171875 661.066406 C 462.933594 667.554688 456.402344 671.328125 449.589844 671.328125 C 447.660156 671.328125 445.710156 671.027344 443.820312 670.402344 C 438.589844 696.882812 424.851562 739.128906 423.371094 745.988281 C 421.519531 754.660156 413.851562 760.589844 405.320312 760.589844 Z M 405.328125 760.597656 " fill-opacity="1" fill-rule="evenodd"/></g><g clip-path="url(#6a49272726)"><path fill="#ffffff" d="M 1094.707031 760.597656 C 1086.175781 760.597656 1078.511719 754.660156 1076.648438 745.980469 C 1075.210938 739.324219 1062.234375 697.8125 1056.699219 670.230469 C 1054.648438 670.972656 1052.523438 671.328125 1050.4375 671.328125 C 1043.625 671.328125 1037.078125 667.558594 1033.855469 661.054688 C 1029.304688 651.90625 1033.042969 640.808594 1042.191406 636.265625 L 1082.4375 616.304688 C 1088.535156 613.289062 1094.5 610.5 1100.261719 607.808594 C 1139.707031 589.414062 1157.707031 581.03125 1150.664062 534.378906 C 1149.148438 524.28125 1156.089844 514.871094 1166.1875 513.335938 C 1174.460938 512.089844 1182.265625 516.527344 1185.664062 523.714844 C 1222.644531 516.6875 1299.921875 510.953125 1307.453125 509.480469 C 1317.511719 507.476562 1327.191406 514.058594 1329.148438 524.074219 C 1361.65625 690.113281 1160.917969 746.757812 1098.621094 760.179688 C 1097.308594 760.457031 1096 760.597656 1094.699219 760.597656 Z M 1094.707031 760.597656 " fill-opacity="1" fill-rule="evenodd"/></g><path fill="#ffffff" d="M 488.464844 439.625 C 481.632812 439.625 475.078125 435.832031 471.859375 429.289062 C 468.308594 422.0625 465.480469 367.242188 468.925781 342.136719 C 463.109375 339.667969 458.691406 334.285156 457.78125 327.570312 C 456.421875 317.460938 463.523438 308.144531 473.628906 306.777344 C 474.792969 306.613281 590.539062 290.320312 632.402344 228.960938 C 636.570312 222.863281 643.984375 219.8125 651.210938 221.238281 C 658.457031 222.640625 664.175781 228.246094 665.75 235.453125 C 666.710938 239.839844 687.011719 344.058594 496.613281 437.710938 C 493.984375 439.015625 491.203125 439.625 488.457031 439.625 Z M 488.464844 439.625 " fill-opacity="1" fill-rule="evenodd"/><path fill="#ffffff" d="M 1011.582031 439.625 C 1008.835938 439.625 1006.054688 439.015625 1003.425781 437.71875 C 813.019531 344.058594 833.320312 239.839844 834.273438 235.453125 C 835.839844 228.238281 841.5625 222.65625 848.808594 221.238281 C 856.0625 219.8125 863.457031 222.871094 867.613281 228.972656 C 909.609375 290.527344 1025.21875 306.632812 1026.382812 306.785156 C 1036.503906 308.144531 1043.613281 317.445312 1042.253906 327.566406 C 1041.648438 332.085938 1039.492188 336.003906 1036.371094 338.835938 C 1037.792969 366.550781 1031.628906 422.273438 1028.167969 429.289062 C 1024.960938 435.832031 1018.410156 439.625 1011.582031 439.625 Z M 1011.582031 439.625 " fill-opacity="1" fill-rule="evenodd"/><path fill="#ffffff" d="M 763.050781 1054.238281 C 758.5 1054.238281 754.019531 1054.183594 749.550781 1054.058594 C 623.425781 1057.625 466.726562 1014.621094 403.371094 911.941406 C 375.15625 866.21875 353.882812 788.566406 412.78125 678.296875 C 442.007812 623.566406 481.585938 578.296875 530.40625 543.742188 C 534.976562 540.503906 540.503906 539.628906 545.546875 540.886719 C 570.859375 523.007812 625.179688 495.097656 632.484375 492.746094 C 708.300781 468.339844 791.785156 468.339844 867.589844 492.757812 C 874.769531 495.074219 879.5625 501.367188 880.304688 508.421875 C 909.960938 516.535156 963.46875 539.375 969.648438 543.765625 C 1018.527344 578.375 1058.101562 623.636719 1087.285156 678.304688 C 1146.183594 788.589844 1124.90625 866.234375 1096.710938 911.945312 C 1035.558594 1011.023438 887.566406 1054.234375 763.054688 1054.246094 Z M 763.050781 1054.238281 " fill-opacity="1" fill-rule="evenodd"/><path fill="#ffffff" d="M 763.050781 1054.238281 C 758.5 1054.238281 754.019531 1054.183594 749.550781 1054.058594 C 743.609375 1054.226562 737.59375 1054.296875 731.535156 1054.253906 L 731.535156 730.578125 C 731.535156 720.363281 739.808594 712.085938 750.023438 712.085938 C 760.234375 712.085938 768.515625 720.363281 768.515625 730.578125 L 768.515625 1054.203125 C 766.691406 1054.226562 764.867188 1054.234375 763.054688 1054.234375 Z M 763.050781 1054.238281 " fill-opacity="1" fill-rule="evenodd"/><path fill="#ffffff" d="M 580.578125 592.902344 C 538.457031 592.902344 504.203125 558.632812 504.203125 516.527344 C 504.203125 474.414062 538.472656 440.152344 580.578125 440.152344 C 622.691406 440.152344 656.953125 474.421875 656.953125 516.527344 C 656.953125 558.640625 622.683594 592.902344 580.578125 592.902344 Z M 580.578125 592.902344 " fill-opacity="1" fill-rule="evenodd"/><path fill="#ffffff" d="M 919.457031 592.902344 C 877.34375 592.902344 843.082031 558.632812 843.082031 516.527344 C 843.082031 474.414062 877.351562 440.152344 919.457031 440.152344 C 961.578125 440.152344 995.847656 474.421875 995.847656 516.527344 C 995.847656 558.640625 961.578125 592.902344 919.457031 592.902344 Z M 919.457031 592.902344 " fill-opacity="1" fill-rule="evenodd"/><g clip-path="url(#03df294725)"><path fill="#ffffff" d="M 275.207031 557.554688 C 237.199219 557.554688 202.035156 550.035156 184.457031 545.554688 C 175.621094 543.300781 169.742188 534.933594 170.621094 525.851562 C 170.976562 522.171875 210.507812 158.339844 565.394531 158.339844 C 580.042969 158.339844 595.21875 158.972656 610.519531 160.21875 C 619.320312 160.933594 626.386719 167.78125 627.394531 176.558594 C 628.390625 185.335938 623.039062 193.59375 614.625 196.277344 C 613.902344 196.507812 538.90625 221.296875 507.308594 285.152344 C 489 322.160156 488.519531 365.835938 505.90625 414.953125 C 508.316406 421.75 506.546875 429.324219 501.378906 434.359375 C 497.445312 438.1875 404.410156 528.402344 336.539062 549.300781 C 318.734375 554.777344 298.101562 557.554688 275.210938 557.554688 Z M 275.207031 557.554688 " fill-opacity="1" fill-rule="evenodd"/></g><g clip-path="url(#462a7b8aca)"><path fill="#ffffff" d="M 1224.835938 557.554688 C 1201.933594 557.554688 1181.308594 554.765625 1163.511719 549.300781 C 1095.636719 528.402344 1002.609375 438.195312 998.683594 434.359375 C 993.523438 429.332031 991.761719 421.757812 994.152344 414.953125 C 1011.578125 365.71875 1011.054688 321.96875 992.621094 284.894531 C 960.746094 220.824219 886.171875 196.5 885.421875 196.257812 C 876.996094 193.582031 871.640625 185.3125 872.640625 176.546875 C 873.640625 167.757812 880.714844 160.914062 889.523438 160.207031 C 904.820312 158.972656 920.003906 158.332031 934.632812 158.332031 C 1289.523438 158.332031 1329.042969 522.152344 1329.40625 525.835938 C 1330.292969 534.914062 1324.410156 543.292969 1315.570312 545.539062 C 1298 550.027344 1262.828125 557.546875 1224.828125 557.546875 Z M 1224.835938 557.554688 " fill-opacity="1" fill-rule="evenodd"/></g><path fill="#ffffff" d="M 605.367188 747.632812 C 601.738281 747.632812 598.0625 746.566406 594.859375 744.339844 C 586.460938 738.519531 584.371094 727 590.175781 718.613281 L 609.679688 690.449219 C 615.484375 682.042969 627.019531 679.960938 635.40625 685.765625 C 643.804688 691.585938 645.890625 703.105469 640.085938 711.492188 L 620.597656 739.671875 C 617.003906 744.851562 611.234375 747.632812 605.371094 747.632812 Z M 605.367188 747.632812 " fill-opacity="1" fill-rule="evenodd"/><path fill="#ffffff" d="M 605.367188 880.160156 C 601.738281 880.160156 598.0625 879.105469 594.859375 876.878906 C 586.460938 871.0625 584.371094 859.539062 590.175781 851.148438 L 609.679688 822.984375 C 615.484375 814.582031 627.019531 812.496094 635.40625 818.300781 C 643.804688 824.121094 645.890625 835.640625 640.085938 844.03125 L 620.597656 872.199219 C 617.003906 877.378906 611.234375 880.160156 605.371094 880.160156 Z M 605.367188 880.160156 " fill-opacity="1" fill-rule="evenodd"/><path fill="#ffffff" d="M 894.667969 747.632812 C 888.808594 747.632812 883.039062 744.84375 879.445312 739.65625 L 859.957031 711.492188 C 854.136719 703.089844 856.238281 691.570312 864.636719 685.765625 C 873.023438 679.941406 884.554688 682.046875 890.367188 690.449219 L 909.859375 718.613281 C 915.675781 727.011719 913.574219 738.53125 905.175781 744.339844 C 901.964844 746.570312 898.300781 747.632812 894.667969 747.632812 Z M 894.667969 747.632812 " fill-opacity="1" fill-rule="evenodd"/><path fill="#ffffff" d="M 894.667969 880.160156 C 888.808594 880.160156 883.039062 877.378906 879.445312 872.199219 L 859.957031 844.03125 C 854.136719 835.632812 856.238281 824.113281 864.636719 818.300781 C 873.023438 812.480469 884.554688 814.589844 890.367188 822.984375 L 909.859375 851.148438 C 915.675781 859.546875 913.574219 871.066406 905.175781 876.878906 C 901.964844 879.105469 898.300781 880.160156 894.667969 880.160156 Z M 894.667969 880.160156 " fill-opacity="1" fill-rule="evenodd"/><path fill="#ffffff" d="M 580.578125 545.78125 C 564.445312 545.78125 551.324219 532.652344 551.324219 516.527344 C 551.324219 500.394531 564.453125 487.273438 580.578125 487.273438 C 596.710938 487.273438 609.832031 500.402344 609.832031 516.527344 C 609.832031 532.660156 596.703125 545.78125 580.578125 545.78125 Z M 580.578125 545.78125 " fill-opacity="1" fill-rule="evenodd"/><path fill="#ffffff" d="M 919.464844 545.78125 C 903.332031 545.78125 890.207031 532.652344 890.207031 516.527344 C 890.207031 500.394531 903.339844 487.273438 919.464844 487.273438 C 935.597656 487.273438 948.71875 500.402344 948.71875 516.527344 C 948.71875 532.660156 935.589844 545.78125 919.464844 545.78125 Z M 919.464844 545.78125 " fill-opacity="1" fill-rule="evenodd"/></svg>