<svg xmlns="http://www.w3.org/2000/svg" xmlns:xlink="http://www.w3.org/1999/xlink" width="2000" zoomAndPan="magnify" viewBox="0 0 1500 1499.999933" height="2000" preserveAspectRatio="xMidYMid meet" version="1.0"><defs><clipPath id="dc75dd4f0f"><path d="M 1500 195 L 1500 1305 C 1500 1356.71875 1479.457031 1406.316406 1442.886719 1442.886719 C 1406.316406 1479.457031 1356.71875 1500 1305 1500 L 195 1500 C 87.304688 1500 0 1412.695312 0 1305 L 0 195 C 0 87.304688 87.304688 0 195 0 L 1305 0 C 1356.71875 0 1406.316406 20.542969 1442.886719 57.113281 C 1479.457031 93.683594 1500 143.28125 1500 195 Z M 1500 195 " clip-rule="nonzero"/></clipPath><clipPath id="c145fd7c67"><path d="M 0 0 L 1500 0 L 1500 1500 L 0 1500 Z M 0 0 " clip-rule="nonzero"/></clipPath><clipPath id="7df7915705"><path d="M 1500 195 L 1500 1305 C 1500 1356.71875 1479.457031 1406.316406 1442.886719 1442.886719 C 1406.316406 1479.457031 1356.71875 1500 1305 1500 L 195 1500 C 87.304688 1500 0 1412.695312 0 1305 L 0 195 C 0 87.304688 87.304688 0 195 0 L 1305 0 C 1356.71875 0 1406.316406 20.542969 1442.886719 57.113281 C 1479.457031 93.683594 1500 143.28125 1500 195 Z M 1500 195 " clip-rule="nonzero"/></clipPath><clipPath id="7ad2d13be1"><rect x="0" width="1500" y="0" height="1500"/></clipPath><clipPath id="0a9c102138"><path d="M 228 821 L 1272 821 L 1272 1313.425781 L 228 1313.425781 Z M 228 821 " clip-rule="nonzero"/></clipPath><clipPath id="ea3cc0cd4c"><path d="M 195.371094 520 L 482 520 L 482 761 L 195.371094 761 Z M 195.371094 520 " clip-rule="nonzero"/></clipPath><clipPath id="c7f0aa72d2"><path d="M 1018 520 L 1304.621094 520 L 1304.621094 761 L 1018 761 Z M 1018 520 " clip-rule="nonzero"/></clipPath><clipPath id="0ade65961b"><path d="M 198 186.925781 L 634 186.925781 L 634 567 L 198 567 Z M 198 186.925781 " clip-rule="nonzero"/></clipPath><clipPath id="34aee5ece0"><path d="M 866 186.925781 L 1302 186.925781 L 1302 567 L 866 567 Z M 866 186.925781 " clip-rule="nonzero"/></clipPath></defs><g clip-path="url(#dc75dd4f0f)"><g transform="matrix(1, 0, 0, 1, 0, 0.000000000000112861)"><g clip-path="url(#7ad2d13be1)"><g clip-path="url(#c145fd7c67)"><g clip-path="url(#7df7915705)"><rect x="-330" width="2160" fill="#ea580c" height="2159.999904" y="-329.999985" fill-opacity="1"/></g></g></g></g></g><g clip-path="url(#0a9c102138)"><path fill="#ffffff" d="M 288.171875 1196.9375 C 282.078125 1196.9375 276.308594 1193.757812 273.089844 1188.398438 L 231.222656 1118.683594 C 229.472656 1115.769531 228.601562 1112.410156 228.722656 1109.003906 L 237.382812 861.671875 C 237.683594 853.175781 244.007812 846.121094 252.410156 844.886719 L 410.976562 821.609375 C 420.550781 820.203125 429.535156 826.839844 430.949219 836.453125 C 431.992188 843.585938 428.597656 850.351562 422.855469 853.941406 C 438.648438 869.910156 458.464844 896.03125 459.71875 902.429688 C 461.597656 911.957031 455.386719 921.210938 445.84375 923.085938 L 343.613281 943.179688 L 305.550781 1182.113281 C 304.386719 1189.421875 298.785156 1195.222656 291.515625 1196.621094 C 290.402344 1196.832031 289.273438 1196.9375 288.171875 1196.9375 Z M 522.039062 1313.078125 C 520.679688 1313.078125 519.3125 1312.917969 517.953125 1312.59375 L 438.714844 1293.679688 C 433.296875 1292.382812 428.808594 1288.601562 426.632812 1283.488281 L 380.199219 1174.914062 C 378.117188 1170.074219 378.332031 1164.550781 380.765625 1159.878906 L 488.046875 953.632812 C 492.535156 945.007812 503.148438 941.640625 511.78125 946.140625 C 519.363281 950.089844 522.875 958.789062 520.546875 966.703125 C 542.265625 968.324219 578.21875 977.117188 584.25 980.609375 C 592.652344 985.484375 595.519531 996.25 590.648438 1004.660156 C 567.890625 1043.910156 511.578125 1142.921875 496.105469 1170.128906 L 538.628906 1289.59375 C 540.789062 1295.664062 539.457031 1302.4375 535.144531 1307.253906 C 531.753906 1310.996094 526.96875 1313.078125 522.039062 1313.078125 Z M 1211.863281 1196.9375 C 1210.753906 1196.9375 1209.640625 1196.824219 1208.519531 1196.613281 C 1201.257812 1195.207031 1195.648438 1189.40625 1194.484375 1182.105469 L 1156.433594 943.179688 L 1054.21875 923.085938 C 1044.679688 921.21875 1038.460938 911.957031 1040.34375 902.429688 C 1041.675781 895.617188 1059.859375 866.429688 1073.613281 850.972656 C 1070.117188 847.195312 1068.300781 841.9375 1069.105469 836.445312 C 1070.511719 826.839844 1079.464844 820.226562 1089.078125 821.601562 L 1247.652344 844.875 C 1256.054688 846.109375 1262.375 853.164062 1262.679688 861.664062 L 1271.332031 1108.996094 C 1271.453125 1112.394531 1270.582031 1115.75 1268.835938 1118.671875 L 1226.984375 1188.390625 C 1223.746094 1193.761719 1217.984375 1196.945312 1211.878906 1196.945312 Z M 977.992188 1313.078125 C 973.058594 1313.078125 968.273438 1310.996094 964.894531 1307.242188 C 960.578125 1302.441406 959.253906 1295.660156 961.417969 1289.578125 L 1003.941406 1170.113281 C 988.472656 1142.910156 932.160156 1043.90625 909.40625 1004.640625 C 904.53125 996.238281 907.386719 985.464844 915.804688 980.59375 C 921.632812 977.203125 956.527344 966.679688 978.882812 963.421875 C 978.222656 956.503906 981.726562 949.546875 988.28125 946.148438 C 996.90625 941.640625 1007.527344 945.011719 1012 953.640625 L 1119.28125 1159.882812 C 1121.71875 1164.558594 1121.921875 1170.074219 1119.855469 1174.917969 L 1073.421875 1283.492188 C 1071.234375 1288.617188 1066.738281 1292.402344 1061.339844 1293.683594 L 982.101562 1312.601562 C 980.722656 1312.929688 979.355469 1313.082031 977.996094 1313.082031 Z M 977.992188 1313.078125 " fill-opacity="1" fill-rule="evenodd"/></g><g clip-path="url(#ea3cc0cd4c)"><path fill="#ffffff" d="M 421.996094 760.078125 C 420.769531 760.078125 419.523438 759.949219 418.273438 759.683594 C 358.992188 746.925781 167.953125 693.015625 198.890625 535.011719 C 200.757812 525.480469 209.949219 519.242188 219.535156 521.125 C 227.527344 522.6875 310.507812 526.574219 336.09375 533.40625 C 339.613281 527.316406 346.628906 523.679688 353.96875 524.789062 C 363.570312 526.238281 370.1875 535.203125 368.738281 544.8125 C 362.039062 589.199219 379.167969 597.1875 416.699219 614.691406 C 422.1875 617.242188 427.859375 619.898438 433.667969 622.78125 L 471.953125 641.777344 C 480.660156 646.105469 484.210938 656.660156 479.902344 665.367188 C 476.820312 671.539062 470.601562 675.128906 464.121094 675.128906 C 462.285156 675.128906 460.429688 674.84375 458.628906 674.25 C 453.652344 699.449219 440.578125 739.652344 439.171875 746.179688 C 437.410156 754.429688 430.109375 760.074219 421.992188 760.074219 Z M 421.996094 760.078125 " fill-opacity="1" fill-rule="evenodd"/></g><g clip-path="url(#c7f0aa72d2)"><path fill="#ffffff" d="M 1078.039062 760.078125 C 1069.917969 760.078125 1062.625 754.429688 1060.851562 746.171875 C 1059.484375 739.835938 1047.136719 700.335938 1041.867188 674.085938 C 1039.914062 674.792969 1037.894531 675.128906 1035.90625 675.128906 C 1029.425781 675.128906 1023.195312 671.542969 1020.125 665.351562 C 1015.796875 656.648438 1019.355469 646.085938 1028.058594 641.765625 L 1066.363281 622.769531 C 1072.164062 619.898438 1077.839844 617.242188 1083.324219 614.683594 C 1120.859375 597.179688 1137.988281 589.199219 1131.289062 544.804688 C 1129.84375 535.195312 1136.449219 526.238281 1146.058594 524.78125 C 1153.933594 523.59375 1161.359375 527.816406 1164.59375 534.65625 C 1199.785156 527.96875 1273.324219 522.511719 1280.492188 521.109375 C 1290.0625 519.203125 1299.277344 525.46875 1301.140625 534.996094 C 1332.074219 693.007812 1141.042969 746.914062 1081.761719 759.683594 C 1080.511719 759.949219 1079.265625 760.082031 1078.03125 760.082031 Z M 1078.039062 760.078125 " fill-opacity="1" fill-rule="evenodd"/></g><path fill="#ffffff" d="M 501.113281 454.632812 C 494.613281 454.632812 488.375 451.023438 485.3125 444.796875 C 481.933594 437.921875 479.242188 385.753906 482.523438 361.859375 C 476.984375 359.511719 472.78125 354.386719 471.914062 348 C 470.621094 338.375 477.378906 329.511719 486.996094 328.210938 C 488.105469 328.054688 598.25 312.550781 638.089844 254.15625 C 642.058594 248.355469 649.113281 245.449219 655.988281 246.8125 C 662.886719 248.144531 668.324219 253.476562 669.824219 260.335938 C 670.742188 264.511719 690.0625 363.6875 508.871094 452.8125 C 506.367188 454.050781 503.722656 454.632812 501.109375 454.632812 Z M 501.113281 454.632812 " fill-opacity="1" fill-rule="evenodd"/><path fill="#ffffff" d="M 998.933594 454.632812 C 996.320312 454.632812 993.671875 454.050781 991.171875 452.816406 C 809.972656 363.6875 829.292969 264.511719 830.199219 260.335938 C 831.6875 253.46875 837.132812 248.15625 844.03125 246.8125 C 850.933594 245.449219 857.972656 248.363281 861.925781 254.171875 C 901.890625 312.746094 1011.910156 328.074219 1013.019531 328.21875 C 1022.648438 329.511719 1029.414062 338.363281 1028.121094 347.992188 C 1027.546875 352.296875 1025.492188 356.023438 1022.523438 358.71875 C 1023.875 385.09375 1018.007812 438.121094 1014.714844 444.796875 C 1011.664062 451.023438 1005.429688 454.632812 998.933594 454.632812 Z M 998.933594 454.632812 " fill-opacity="1" fill-rule="evenodd"/><path fill="#ffffff" d="M 762.417969 1039.523438 C 758.089844 1039.523438 753.824219 1039.46875 749.574219 1039.351562 C 629.550781 1042.742188 480.429688 1001.820312 420.136719 904.105469 C 393.285156 860.59375 373.042969 786.699219 429.09375 681.761719 C 456.90625 629.679688 494.566406 586.597656 541.027344 553.714844 C 545.375 550.632812 550.636719 549.800781 555.433594 550.996094 C 579.527344 533.980469 631.21875 507.421875 638.167969 505.183594 C 710.316406 481.957031 789.765625 481.957031 861.90625 505.199219 C 868.734375 507.402344 873.296875 513.386719 874.003906 520.101562 C 902.226562 527.824219 953.148438 549.558594 959.027344 553.734375 C 1005.539062 586.671875 1043.199219 629.746094 1070.976562 681.769531 C 1127.023438 786.71875 1106.773438 860.609375 1079.945312 904.109375 C 1021.75 998.394531 880.914062 1039.515625 762.425781 1039.527344 Z M 762.417969 1039.523438 " fill-opacity="1" fill-rule="evenodd"/><path fill="#ffffff" d="M 762.417969 1039.523438 C 758.089844 1039.523438 753.824219 1039.46875 749.574219 1039.351562 C 743.917969 1039.507812 738.195312 1039.574219 732.429688 1039.535156 L 732.429688 731.515625 C 732.429688 721.792969 740.300781 713.917969 750.023438 713.917969 C 759.738281 713.917969 767.621094 721.792969 767.621094 731.515625 L 767.621094 1039.488281 C 765.882812 1039.507812 764.148438 1039.515625 762.425781 1039.515625 Z M 762.417969 1039.523438 " fill-opacity="1" fill-rule="evenodd"/><path fill="#ffffff" d="M 588.773438 600.5 C 548.691406 600.5 516.089844 567.886719 516.089844 527.816406 C 516.089844 487.738281 548.703125 455.132812 588.773438 455.132812 C 628.851562 455.132812 661.457031 487.746094 661.457031 527.816406 C 661.457031 567.894531 628.84375 600.5 588.773438 600.5 Z M 588.773438 600.5 " fill-opacity="1" fill-rule="evenodd"/><path fill="#ffffff" d="M 911.261719 600.5 C 871.183594 600.5 838.578125 567.886719 838.578125 527.816406 C 838.578125 487.738281 871.191406 455.132812 911.261719 455.132812 C 951.34375 455.132812 983.957031 487.746094 983.957031 527.816406 C 983.957031 567.894531 951.34375 600.5 911.261719 600.5 Z M 911.261719 600.5 " fill-opacity="1" fill-rule="evenodd"/><g clip-path="url(#0ade65961b)"><path fill="#ffffff" d="M 298.171875 566.855469 C 262 566.855469 228.539062 559.703125 211.8125 555.4375 C 203.402344 553.292969 197.804688 545.332031 198.644531 536.6875 C 198.980469 533.191406 236.601562 186.953125 574.324219 186.953125 C 588.265625 186.953125 602.707031 187.554688 617.265625 188.742188 C 625.640625 189.421875 632.367188 195.9375 633.324219 204.292969 C 634.273438 212.640625 629.179688 220.503906 621.171875 223.054688 C 620.488281 223.273438 549.117188 246.863281 519.046875 307.632812 C 501.625 342.851562 501.167969 384.414062 517.714844 431.15625 C 520.003906 437.625 518.320312 444.832031 513.40625 449.625 C 509.664062 453.265625 421.125 539.117188 356.535156 559.003906 C 339.59375 564.21875 319.957031 566.855469 298.175781 566.855469 Z M 298.171875 566.855469 " fill-opacity="1" fill-rule="evenodd"/></g><g clip-path="url(#34aee5ece0)"><path fill="#ffffff" d="M 1201.871094 566.855469 C 1180.078125 566.855469 1160.449219 564.203125 1143.511719 559.003906 C 1078.921875 539.117188 990.390625 453.273438 986.65625 449.625 C 981.746094 444.839844 980.070312 437.628906 982.347656 431.15625 C 998.925781 384.300781 998.429688 342.667969 980.886719 307.386719 C 950.554688 246.414062 879.585938 223.265625 878.875 223.035156 C 870.855469 220.488281 865.757812 212.621094 866.710938 204.277344 C 867.660156 195.917969 874.394531 189.402344 882.773438 188.726562 C 897.335938 187.554688 911.785156 186.945312 925.703125 186.945312 C 1263.433594 186.945312 1301.039062 533.167969 1301.382812 536.675781 C 1302.226562 545.3125 1296.632812 553.289062 1288.214844 555.425781 C 1271.496094 559.695312 1238.027344 566.851562 1201.863281 566.851562 Z M 1201.871094 566.855469 " fill-opacity="1" fill-rule="evenodd"/></g><path fill="#ffffff" d="M 612.363281 747.746094 C 608.910156 747.746094 605.414062 746.726562 602.363281 744.609375 C 594.371094 739.070312 592.382812 728.109375 597.90625 720.128906 L 616.46875 693.324219 C 621.992188 685.324219 632.96875 683.34375 640.949219 688.871094 C 648.941406 694.40625 650.925781 705.371094 645.402344 713.351562 L 626.855469 740.167969 C 623.4375 745.097656 617.945312 747.746094 612.367188 747.746094 Z M 612.363281 747.746094 " fill-opacity="1" fill-rule="evenodd"/><path fill="#ffffff" d="M 612.363281 873.863281 C 608.910156 873.863281 605.414062 872.859375 602.363281 870.738281 C 594.371094 865.203125 592.382812 854.238281 597.90625 846.253906 L 616.46875 819.449219 C 621.992188 811.457031 632.96875 809.46875 640.949219 814.996094 C 648.941406 820.53125 650.925781 831.496094 645.402344 839.480469 L 626.855469 866.285156 C 623.4375 871.214844 617.945312 873.863281 612.367188 873.863281 Z M 612.363281 873.863281 " fill-opacity="1" fill-rule="evenodd"/><path fill="#ffffff" d="M 887.671875 747.746094 C 882.09375 747.746094 876.605469 745.089844 873.183594 740.152344 L 854.636719 713.351562 C 849.101562 705.355469 851.101562 694.394531 859.09375 688.871094 C 867.074219 683.324219 878.050781 685.332031 883.582031 693.324219 L 902.128906 720.128906 C 907.664062 728.121094 905.664062 739.085938 897.671875 744.609375 C 894.617188 746.734375 891.132812 747.746094 887.671875 747.746094 Z M 887.671875 747.746094 " fill-opacity="1" fill-rule="evenodd"/><path fill="#ffffff" d="M 887.671875 873.863281 C 882.09375 873.863281 876.605469 871.214844 873.183594 866.285156 L 854.636719 839.480469 C 849.101562 831.488281 851.101562 820.523438 859.09375 814.996094 C 867.074219 809.457031 878.050781 811.464844 883.582031 819.449219 L 902.128906 846.253906 C 907.664062 854.246094 905.664062 865.210938 897.671875 870.738281 C 894.617188 872.859375 891.132812 873.863281 887.671875 873.863281 Z M 887.671875 873.863281 " fill-opacity="1" fill-rule="evenodd"/><path fill="#ffffff" d="M 588.773438 555.65625 C 573.421875 555.65625 560.933594 543.164062 560.933594 527.816406 C 560.933594 512.464844 573.425781 499.976562 588.773438 499.976562 C 604.125 499.976562 616.613281 512.472656 616.613281 527.816406 C 616.613281 543.167969 604.117188 555.65625 588.773438 555.65625 Z M 588.773438 555.65625 " fill-opacity="1" fill-rule="evenodd"/><path fill="#ffffff" d="M 911.269531 555.65625 C 895.917969 555.65625 883.429688 543.164062 883.429688 527.816406 C 883.429688 512.464844 895.921875 499.976562 911.269531 499.976562 C 926.621094 499.976562 939.109375 512.472656 939.109375 527.816406 C 939.109375 543.167969 926.613281 555.65625 911.269531 555.65625 Z M 911.269531 555.65625 " fill-opacity="1" fill-rule="evenodd"/></svg>