<svg xmlns="http://www.w3.org/2000/svg" width="960" height="540" viewBox="0 0 960 540" role="img" aria-labelledby="title desc">
  <title id="title">Laptop SO-DIMM RAM kit for local AI upgrades</title>
  <desc id="desc">Compact laptop memory modules on a dark product background.</desc>
  <defs>
    <linearGradient id="bg" x1="0" x2="1" y1="0" y2="1">
      <stop offset="0" stop-color="#151515"/>
      <stop offset=".58" stop-color="#090909"/>
      <stop offset="1" stop-color="#07140f"/>
    </linearGradient>
    <linearGradient id="pcb" x1="0" x2="1">
      <stop offset="0" stop-color="#09291d"/>
      <stop offset=".45" stop-color="#164734"/>
      <stop offset="1" stop-color="#082116"/>
    </linearGradient>
    <filter id="shadow" x="-20%" y="-40%" width="140%" height="180%">
      <feDropShadow dx="0" dy="26" stdDeviation="22" flood-color="#000" flood-opacity=".65"/>
      <feDropShadow dx="0" dy="0" stdDeviation="20" flood-color="#34d399" flood-opacity=".12"/>
    </filter>
  </defs>
  <rect width="960" height="540" rx="42" fill="url(#bg)"/>
  <g opacity=".18" stroke="#fff" stroke-width="1">
    <path d="M0 108h960M0 216h960M0 324h960M0 432h960M160 0v540M320 0v540M480 0v540M640 0v540M800 0v540"/>
  </g>
  <g filter="url(#shadow)" transform="translate(170 158) rotate(-5 310 70)">
    <rect x="0" y="0" width="620" height="88" rx="16" fill="url(#pcb)" stroke="#2f6f55" stroke-width="3"/>
    <rect x="22" y="58" width="576" height="9" rx="5" fill="#f3d37a"/>
    <g fill="#0b0b0c" stroke="#2f2f34" stroke-width="2">
      <rect x="56" y="22" width="56" height="30" rx="6"/>
      <rect x="132" y="22" width="56" height="30" rx="6"/>
      <rect x="208" y="22" width="56" height="30" rx="6"/>
      <rect x="284" y="22" width="56" height="30" rx="6"/>
      <rect x="380" y="22" width="56" height="30" rx="6"/>
      <rect x="456" y="22" width="56" height="30" rx="6"/>
    </g>
    <circle cx="30" cy="30" r="8" fill="#0d0d0d" stroke="#8fd5bb" stroke-width="2"/>
    <circle cx="590" cy="30" r="8" fill="#0d0d0d" stroke="#8fd5bb" stroke-width="2"/>
  </g>
  <g filter="url(#shadow)" transform="translate(170 288) rotate(-5 310 70)">
    <rect x="0" y="0" width="620" height="88" rx="16" fill="url(#pcb)" stroke="#2f6f55" stroke-width="3"/>
    <rect x="22" y="58" width="576" height="9" rx="5" fill="#f3d37a"/>
    <g fill="#0b0b0c" stroke="#2f2f34" stroke-width="2">
      <rect x="56" y="22" width="56" height="30" rx="6"/>
      <rect x="132" y="22" width="56" height="30" rx="6"/>
      <rect x="208" y="22" width="56" height="30" rx="6"/>
      <rect x="284" y="22" width="56" height="30" rx="6"/>
      <rect x="380" y="22" width="56" height="30" rx="6"/>
      <rect x="456" y="22" width="56" height="30" rx="6"/>
    </g>
    <circle cx="30" cy="30" r="8" fill="#0d0d0d" stroke="#8fd5bb" stroke-width="2"/>
    <circle cx="590" cy="30" r="8" fill="#0d0d0d" stroke="#8fd5bb" stroke-width="2"/>
  </g>
</svg>
